<svg xmlns="http://www.w3.org/2000/svg" id="Light_Bulb" data-name="Light Bulb" width="32.157" height="43.939" viewBox="0 0 32.157 43.939">
  <g id="Group_286" data-name="Group 286">
    <g id="Group_280" data-name="Group 280">
      <path id="Path_152" data-name="Path 152" d="M241.068,84.332a16.078,16.078,0,1,0-21.943,16c.123,1.9.262,4.047.262,4.047l14.062-.909s-.062-2.277-.162-4.307A16.071,16.071,0,0,0,241.068,84.332Z" transform="translate(-208.944 -69.29)" fill="#673ab7"/>
      <g id="Group_279" data-name="Group 279" transform="translate(7.816 16.299)">
        <path id="Path_153" data-name="Path 153" d="M232.394,112.143s0-.067,0-.2l.028-.583c.03-.512.071-1.268.151-2.24s.193-2.16.413-3.528a23.844,23.844,0,0,1,1.167-4.559,15.3,15.3,0,0,1,1.164-2.486,2.97,2.97,0,0,1,1.033-1.056,1.656,1.656,0,0,1,1.527-.049,1.094,1.094,0,0,1,.549.6,1.122,1.122,0,0,1-.014.828,2.289,2.289,0,0,1-1.17,1.148,4.4,4.4,0,0,1-3.351-.02,4.457,4.457,0,0,1-2.438-2.531,3.362,3.362,0,0,1-.214-1.845,1.444,1.444,0,0,1,1.386-1.209,1.038,1.038,0,0,1,.853.513,1.456,1.456,0,0,1,.193.981,3.143,3.143,0,0,1-1.025,1.667,4.8,4.8,0,0,1-3.67,1.327,4.178,4.178,0,0,1-3.251-2.112,2.427,2.427,0,0,1-.234-1.936,1.23,1.23,0,0,1,.658-.755,1.2,1.2,0,0,1,.994.027,1.6,1.6,0,0,1,.723.66,2.5,2.5,0,0,1,.3.908,4.626,4.626,0,0,1-.125,1.85,4.785,4.785,0,0,1-2.087,2.837,4.874,4.874,0,0,1-3.291.671,2.55,2.55,0,0,1-1.494-.672,1.245,1.245,0,0,1-.189-1.54,1.049,1.049,0,0,1,.7-.4,1.518,1.518,0,0,1,.776.1,2.332,2.332,0,0,1,1.053,1.037c.459.844.838,1.669,1.217,2.455,1.492,3.15,2.575,5.756,3.3,7.563.364.9.636,1.61.818,2.089.087.235.155.416.2.547s.063.189.063.189-.03-.061-.082-.181l-.221-.54-.853-2.075c-.751-1.8-1.852-4.392-3.358-7.532-.381-.78-.77-1.613-1.223-2.438a2.184,2.184,0,0,0-.981-.968.963.963,0,0,0-1.1,1.576,2.385,2.385,0,0,0,1.4.617,4.694,4.694,0,0,0,3.168-.654,4.6,4.6,0,0,0,2-2.731,4.438,4.438,0,0,0,.118-1.771,1.746,1.746,0,0,0-.917-1.421,1.01,1.01,0,0,0-.836-.025,1.035,1.035,0,0,0-.551.641A2.235,2.235,0,0,0,225.9,96.7a3.985,3.985,0,0,0,3.1,2.01,4.6,4.6,0,0,0,3.517-1.274,2.958,2.958,0,0,0,.967-1.553,1.265,1.265,0,0,0-.165-.849.843.843,0,0,0-.7-.422,1.129,1.129,0,0,0-.781.309,1.384,1.384,0,0,0-.411.748,3.185,3.185,0,0,0,.2,1.736,4.275,4.275,0,0,0,2.332,2.43,4.231,4.231,0,0,0,3.207.031,2.122,2.122,0,0,0,1.086-1.052.949.949,0,0,0-.452-1.223,1.5,1.5,0,0,0-1.375.042,2.813,2.813,0,0,0-.981,1,15.218,15.218,0,0,0-1.163,2.453,23.994,23.994,0,0,0-1.189,4.528c-.229,1.363-.353,2.548-.445,3.517s-.144,1.716-.187,2.236l-.048.582C232.405,112.076,232.394,112.143,232.394,112.143Z" transform="translate(-220.796 -94.005)" fill="#263238"/>
      </g>
      <path id="Path_154" data-name="Path 154" d="M237.981,124.227l-12.074.78a.908.908,0,0,1-.965-.847h0a.908.908,0,0,1,.847-.965l12.074-.78a.908.908,0,0,1,.964.847h0A.908.908,0,0,1,237.981,124.227Z" transform="translate(-214.391 -87.378)" fill="#263238"/>
      <path id="Path_155" data-name="Path 155" d="M238.119,126.363l-12.074.78a.908.908,0,1,0,.117,1.812l1.325-.085,1.975,3.233a1.167,1.167,0,0,0,1.071.556l4.314-.279a1.167,1.167,0,0,0,1-.7l1.493-3.446.9-.059a.908.908,0,1,0-.117-1.812Z" transform="translate(-214.478 -88.722)" fill="#263238"/>
    </g>
    <g id="Group_281" data-name="Group 281" transform="translate(1.715 3.241)" opacity="0.2">
      <path id="Path_156" data-name="Path 156" d="M214.94,77.485a11.833,11.833,0,0,1,3.075-2.344,8.527,8.527,0,0,1,2.426-.878c.6-.1.952-.066.99.06.088.287-1.1.8-2.668,2a13.221,13.221,0,0,0-5.177,13.345c.348,1.944.882,3.122.623,3.274-.113.068-.4-.14-.772-.623a8.534,8.534,0,0,1-1.2-2.285,11.823,11.823,0,0,1-.691-3.8,12.517,12.517,0,0,1,.824-4.711" transform="translate(-211.546 -74.204)" fill="#fff"/>
    </g>
    <g id="Group_282" data-name="Group 282" transform="translate(13.421 1.824)" opacity="0.2">
      <path id="Path_157" data-name="Path 157" d="M231.378,74.035c-1.018.056-1.932-.164-2.072-.7-.062-.264.107-.561.46-.807a3.225,3.225,0,0,1,3.033-.18c.38.2.584.477.553.746" transform="translate(-229.294 -72.057)" fill="#fff"/>
    </g>
    <g id="Group_283" data-name="Group 283" transform="translate(15.447 42.708)">
      <path id="Path_158" data-name="Path 158" d="M238.077,134.6c-.013.031-.324-.088-.845-.2a6.726,6.726,0,0,0-4.071.382c-.491.208-.776.383-.793.355a2.466,2.466,0,0,1,.735-.483,5.89,5.89,0,0,1,4.163-.39A2.467,2.467,0,0,1,238.077,134.6Z" transform="translate(-232.366 -134.048)" fill="#455a64"/>
    </g>
    <g id="Group_284" data-name="Group 284" transform="translate(13.135 39.535)">
      <path id="Path_159" data-name="Path 159" d="M238.611,129.252c0,.054-2.176.239-4.868.413s-4.878.27-4.882.216,2.176-.239,4.869-.413S238.608,129.2,238.611,129.252Z" transform="translate(-228.861 -129.237)" fill="#455a64"/>
    </g>
    <g id="Group_285" data-name="Group 285" transform="translate(14.088 41.02)">
      <path id="Path_160" data-name="Path 160" d="M238.44,131.5a6.83,6.83,0,0,1-1.181.2c-.733.094-1.748.2-2.873.29s-2.144.141-2.883.164a6.9,6.9,0,0,1-1.2-.011,7.609,7.609,0,0,1,1.19-.129l2.875-.22,2.873-.233A7.577,7.577,0,0,1,238.44,131.5Z" transform="translate(-230.306 -131.489)" fill="#455a64"/>
    </g>
  </g>
</svg>