<svg xmlns="http://www.w3.org/2000/svg" id="Group_351" data-name="Group 351" width="92.356" height="96.691" viewBox="0 0 92.356 96.691">
  <g id="Group_330" data-name="Group 330" transform="translate(3.92 4.764)">
    <g id="Group_329" data-name="Group 329">
      <g id="Group_328" data-name="Group 328">
        <g id="Group_327" data-name="Group 327">
          <g id="Group_326" data-name="Group 326">
            <path id="Path_177" data-name="Path 177" d="M218.15,386.69s-.124.148-.386.413l-1.182,1.174-4.59,4.471-17.029,16.425.067-.168c.81,17.827,1.909,42.057,3.134,69l.027.609-.507-.338c-1.954-1.307-4.043-2.7-6.15-4.112l-38.992-26.1-.08-.053-.03-.09c-5.818-17.374-10.725-32.029-14.189-42.371-1.7-5.143-3.048-9.213-3.977-12.025q-.667-2.063-1.033-3.191c-.107-.347-.19-.617-.254-.824a1.5,1.5,0,0,1-.071-.283,1.461,1.461,0,0,1,.115.269c.074.2.172.469.3.808q.392,1.117,1.114,3.164l4.126,11.975c3.515,10.323,8.5,24.954,14.4,42.3l-.109-.142,39.028,26.053,6.148,4.112-.48.27c-1.154-26.949-2.191-51.181-2.955-69.01l0-.1.072-.068c7.251-6.878,13.1-12.43,17.167-16.283,2.013-1.892,3.583-3.366,4.671-4.387.521-.482.928-.857,1.223-1.128C218,386.807,218.15,386.69,218.15,386.69Z" transform="translate(-132.906 -386.69)" fill="#673ab7"/>
          </g>
        </g>
      </g>
    </g>
  </g>
  <g id="Group_338" data-name="Group 338" transform="translate(19 60.668)">
    <g id="Group_337" data-name="Group 337">
      <g id="Group_336" data-name="Group 336">
        <g id="Group_335" data-name="Group 335">
          <path id="Path_179" data-name="Path 179" d="M148.565,426.039l.078,2.6,2.189,1.412-2.452.879-.666,2.518-1.594-2.06-2.6.145,1.467-2.152-.941-2.429,2.5.73Z" transform="translate(-143.52 -426.039)" fill="#673ab7"/>
        </g>
      </g>
    </g>
  </g>
  <g id="Group_342" data-name="Group 342" transform="translate(0 2.522)">
    <g id="Group_341" data-name="Group 341">
      <g id="Group_340" data-name="Group 340">
        <g id="Group_339" data-name="Group 339">
          <path id="Path_180" data-name="Path 180" d="M133.96,385.112l1.964,2.522,3.191-.188-1.792,2.647,1.165,2.977-3.072-.886-2.471,2.028-.107-3.195-2.692-1.724,3.006-1.089Z" transform="translate(-130.147 -385.112)" fill="#673ab7"/>
        </g>
      </g>
    </g>
  </g>
  <g id="Group_346" data-name="Group 346" transform="translate(83.388)">
    <g id="Group_345" data-name="Group 345">
      <g id="Group_344" data-name="Group 344">
        <g id="Group_343" data-name="Group 343">
          <path id="Path_181" data-name="Path 181" d="M192.653,383.337l1.964,2.522,3.191-.188-1.792,2.647,1.165,2.977-3.072-.886-2.471,2.028-.107-3.2-2.692-1.724,3.006-1.089Z" transform="translate(-188.84 -383.337)" fill="#673ab7"/>
        </g>
      </g>
    </g>
  </g>
  <g id="Group_350" data-name="Group 350" transform="translate(62.876 24.36)">
    <g id="Group_349" data-name="Group 349">
      <g id="Group_348" data-name="Group 348">
        <g id="Group_347" data-name="Group 347">
          <path id="Path_182" data-name="Path 182" d="M176.836,400.483l1.254,1.61,2.037-.12-1.144,1.69.744,1.9-1.96-.565-1.577,1.294-.068-2.039-1.718-1.1,1.918-.695Z" transform="translate(-174.403 -400.483)" fill="#673ab7"/>
        </g>
      </g>
    </g>
  </g>
</svg>