<svg xmlns="http://www.w3.org/2000/svg" width="39.399" height="61.775" viewBox="0 0 39.399 61.775">
  <g id="Group_1330" data-name="Group 1330" transform="matrix(0.921, 0.391, -0.391, 0.921, 20.767, -25.996)">
    <g id="Group_118" data-name="Group 118" transform="translate(12.513 22.93)">
      <path id="Rectangle_10" data-name="Rectangle 10" d="M0,0H17.461a0,0,0,0,1,0,0V38.272a5.413,5.413,0,0,1-5.413,5.413H5.413A5.413,5.413,0,0,1,0,38.272V0A0,0,0,0,1,0,0Z" transform="translate(0 16.013)" fill="#673ab7"/>
      <path id="Path_79" data-name="Path 79" d="M164.71,67.159l8.73-16.013,8.73,16.013Z" transform="translate(-164.71 -51.146)" fill="#b99cef"/>
      <path id="Path_80" data-name="Path 80" d="M168.421,57.488s2.651,3.988,6.916,0l-3.458-6.342Z" transform="translate(-163.149 -51.146)" fill="#673ab7"/>
      <line id="Line_1" data-name="Line 1" x2="3.748" transform="translate(2.586 16.013)" fill="#673ab7" opacity="0.3"/>
    </g>
    <g id="Group_119" data-name="Group 119" transform="translate(12.464 72.832)">
      <path id="Path_81" data-name="Path 81" d="M182.427,86.622c0,.195-3.974.352-8.875.352s-8.875-.158-8.875-.352,3.972-.352,8.875-.352S182.427,86.428,182.427,86.622Z" transform="translate(-164.676 -86.27)" fill="#f1f1f1"/>
    </g>
    <g id="Group_120" data-name="Group 120" transform="translate(12.642 70.155)">
      <path id="Path_82" data-name="Path 82" d="M182.2,84.738c0,.2-3.893.354-8.7.354s-8.7-.158-8.7-.354,3.894-.352,8.7-.352S182.2,84.544,182.2,84.738Z" transform="translate(-164.801 -84.386)" fill="#f1f1f1"/>
    </g>
    <g id="Group_121" data-name="Group 121" transform="translate(17.285 39.199)">
      <path id="Path_83" data-name="Path 83" d="M168.421,62.6c.195,0,.354,6.969.354,15.564s-.159,15.567-.354,15.567-.352-6.969-.352-15.567S168.227,62.6,168.421,62.6Z" transform="translate(-168.069 -62.597)" fill="#e0e5e6"/>
    </g>
    <g id="Group_122" data-name="Group 122" transform="translate(24.349 39.199)">
      <path id="Path_84" data-name="Path 84" d="M173.393,62.6c.195,0,.354,6.969.354,15.564s-.159,15.567-.354,15.567-.352-6.969-.352-15.567S173.2,62.6,173.393,62.6Z" transform="translate(-173.041 -62.597)" fill="#e0e5e6"/>
    </g>
  </g>
</svg>